<?xml version="1.0" encoding="UTF-8"?><svg id="a" xmlns="http://www.w3.org/2000/svg" viewBox="0 0 180 60"><defs><style>.b{fill:#e67817;}.c{fill:#6bac00;}</style></defs><g><path class="c" d="M-.85,52.52c.5,.26,1.27,.51,2.06,.51,.85,0,1.31-.35,1.31-.89s-.39-.81-1.38-1.16c-1.37-.48-2.26-1.23-2.26-2.43,0-1.4,1.17-2.48,3.11-2.48,.93,0,1.61,.2,2.1,.42l-.42,1.5c-.33-.16-.92-.39-1.72-.39s-1.2,.37-1.2,.79c0,.52,.46,.76,1.53,1.16,1.45,.54,2.14,1.29,2.14,2.45,0,1.38-1.06,2.55-3.32,2.55-.94,0-1.87-.24-2.33-.5l.38-1.54Z"/><path class="c" d="M7.54,46.21v4.74c0,1.42,.54,2.14,1.49,2.14s1.51-.68,1.51-2.14v-4.74h1.86v4.61c0,2.54-1.28,3.75-3.43,3.75s-3.3-1.15-3.3-3.77v-4.59h1.87Z"/><path class="c" d="M14.01,54.44v-8.23h2.17l1.71,3.02c.49,.87,.98,1.89,1.34,2.82h.04c-.12-1.09-.16-2.2-.16-3.43v-2.4h1.71v8.23h-1.95l-1.76-3.17c-.49-.88-1.03-1.94-1.43-2.91h-.04c.05,1.1,.07,2.26,.07,3.6v2.48h-1.71Z"/><path class="c" d="M22.43,46.32c.6-.1,1.49-.17,2.48-.17,1.22,0,2.08,.18,2.66,.65,.49,.39,.76,.96,.76,1.72,0,1.05-.74,1.77-1.45,2.03v.04c.57,.23,.89,.78,1.1,1.54,.26,.93,.51,2,.67,2.32h-1.9c-.13-.23-.33-.9-.57-1.92-.22-1.03-.57-1.31-1.33-1.32h-.56v3.24h-1.84v-8.12Zm1.84,3.54h.73c.93,0,1.48-.46,1.48-1.18,0-.76-.51-1.14-1.37-1.15-.45,0-.71,.04-.84,.06v2.27Z"/><path class="c" d="M31.54,46.21v8.23h-1.87v-8.23h1.87Z"/><path class="c" d="M33.21,52.52c.5,.26,1.27,.51,2.06,.51,.85,0,1.31-.35,1.31-.89s-.39-.81-1.38-1.16c-1.37-.48-2.26-1.23-2.26-2.43,0-1.4,1.17-2.48,3.11-2.48,.93,0,1.61,.2,2.1,.42l-.42,1.5c-.33-.16-.92-.39-1.72-.39s-1.2,.37-1.2,.79c0,.52,.46,.76,1.53,1.16,1.45,.54,2.14,1.29,2.14,2.45,0,1.38-1.06,2.55-3.32,2.55-.94,0-1.87-.24-2.33-.5l.38-1.54Z"/><path class="c" d="M44.64,50.96h-3.03v1.95h3.38v1.53h-5.25v-8.23h5.08v1.53h-3.21v1.71h3.03v1.51Z"/><path class="c" d="M49.61,54.44l-1.95-8.23h1.99l.62,3.39c.18,.98,.35,2.04,.49,2.87h.02c.13-.89,.33-1.88,.54-2.89l.7-3.37h1.98l.66,3.47c.18,.96,.32,1.84,.44,2.76h.02c.12-.92,.31-1.88,.48-2.86l.67-3.37h1.89l-2.12,8.23h-2.01l-.7-3.54c-.16-.83-.29-1.6-.39-2.54h-.02c-.15,.93-.28,1.71-.48,2.54l-.78,3.54h-2.04Z"/><path class="c" d="M66.56,50.24c0,2.7-1.64,4.33-4.04,4.33s-3.87-1.84-3.87-4.19c0-2.47,1.57-4.31,4-4.31s3.91,1.89,3.91,4.16Zm-5.94,.11c0,1.61,.76,2.75,2,2.75s1.98-1.2,1.98-2.79c0-1.48-.71-2.75-1.99-2.75s-1.99,1.2-1.99,2.8Z"/><path class="c" d="M74.74,51.29c-.04-.99-.07-2.19-.07-3.38h-.04c-.26,1.05-.6,2.22-.92,3.19l-1,3.21h-1.45l-.88-3.19c-.27-.96-.55-2.14-.74-3.21h-.02c-.05,1.11-.09,2.38-.15,3.41l-.15,3.12h-1.72l.52-8.23h2.48l.81,2.75c.26,.95,.51,1.98,.7,2.94h.04c.23-.95,.51-2.04,.78-2.95l.88-2.73h2.43l.45,8.23h-1.82l-.12-3.15Z"/><path class="c" d="M83,50.96h-3.03v1.95h3.38v1.53h-5.25v-8.23h5.08v1.53h-3.21v1.71h3.03v1.51Z"/><path class="c" d="M84.63,54.44v-8.23h2.17l1.71,3.02c.49,.87,.98,1.89,1.34,2.82h.04c-.12-1.09-.16-2.2-.16-3.43v-2.4h1.71v8.23h-1.95l-1.76-3.17c-.49-.88-1.03-1.94-1.43-2.91h-.04c.05,1.1,.07,2.26,.07,3.6v2.48h-1.71Z"/><path class="c" d="M95.52,46.32c.68-.11,1.57-.17,2.51-.17,1.56,0,2.58,.28,3.37,.88,.85,.63,1.39,1.65,1.39,3.1,0,1.58-.57,2.66-1.37,3.33-.87,.72-2.19,1.06-3.8,1.06-.96,0-1.65-.06-2.11-.12v-8.08Zm1.87,6.71c.16,.04,.42,.04,.65,.04,1.68,.01,2.78-.92,2.78-2.88,.01-1.71-.99-2.61-2.59-2.61-.42,0-.68,.04-.84,.07v5.38Z"/><path class="c" d="M108.91,50.96h-3.03v1.95h3.38v1.53h-5.25v-8.23h5.08v1.53h-3.21v1.71h3.03v1.51Z"/><path class="c" d="M112.56,54.44l-2.64-8.23h2.04l1,3.48c.28,.98,.54,1.92,.73,2.94h.04c.21-.99,.46-1.97,.74-2.91l1.05-3.52h1.98l-2.77,8.23h-2.17Z"/><path class="c" d="M123.28,50.96h-3.03v1.95h3.38v1.53h-5.25v-8.23h5.08v1.53h-3.21v1.71h3.03v1.51Z"/><path class="c" d="M124.91,46.21h1.87v6.67h3.27v1.56h-5.14v-8.23Z"/><path class="c" d="M138.21,50.24c0,2.7-1.64,4.33-4.04,4.33s-3.87-1.84-3.87-4.19c0-2.47,1.57-4.31,4-4.31s3.91,1.89,3.91,4.16Zm-5.95,.11c0,1.61,.76,2.75,2,2.75s1.98-1.2,1.98-2.79c0-1.48-.71-2.75-1.99-2.75s-1.99,1.2-1.99,2.8Z"/><path class="c" d="M139.43,46.32c.57-.1,1.38-.17,2.51-.17s1.96,.22,2.51,.66c.52,.42,.88,1.1,.88,1.9s-.27,1.49-.76,1.95c-.63,.6-1.57,.87-2.67,.87-.24,0-.46-.01-.63-.04v2.94h-1.84v-8.12Zm1.84,3.74c.16,.04,.35,.05,.62,.05,.99,0,1.6-.5,1.6-1.34,0-.76-.53-1.21-1.45-1.21-.38,0-.63,.04-.77,.07v2.43Z"/><path class="c" d="M153.31,51.29c-.04-.99-.07-2.19-.07-3.38h-.04c-.26,1.05-.6,2.22-.92,3.19l-1,3.21h-1.45l-.88-3.19c-.27-.96-.55-2.14-.75-3.21h-.02c-.05,1.11-.09,2.38-.15,3.41l-.15,3.12h-1.72l.52-8.23h2.48l.81,2.75c.26,.95,.51,1.98,.7,2.94h.04c.23-.95,.51-2.04,.78-2.95l.88-2.73h2.43l.45,8.23h-1.82l-.12-3.15Z"/><path class="c" d="M161.58,50.96h-3.03v1.95h3.38v1.53h-5.25v-8.23h5.08v1.53h-3.21v1.71h3.03v1.51Z"/><path class="c" d="M163.21,54.44v-8.23h2.17l1.71,3.02c.49,.87,.98,1.89,1.34,2.82h.04c-.12-1.09-.16-2.2-.16-3.43v-2.4h1.71v8.23h-1.95l-1.76-3.17c-.49-.88-1.03-1.94-1.43-2.91h-.04c.05,1.1,.07,2.26,.07,3.6v2.48h-1.71Z"/><path class="c" d="M173.22,47.78h-2.21v-1.56h6.32v1.56h-2.25v6.67h-1.87v-6.67Z"/></g><g><path d="M105.72,21.36c-.04-1.74-1.23-2.75-3.2-2.75-1.62,0-2.53,.65-2.53,1.78,0,1.78,4.29,2.47,5.35,2.79,4.19,1.25,8.62,3.11,8.62,9.1s-4.26,9.78-10.94,9.78-11.29-3.92-11.36-10.35h7.7c.14,2.79,1.65,3.72,3.91,3.72,1.94,0,3.13-.93,3.13-2.39,0-.49-.18-.85-.49-1.17-1.02-.97-5.35-2.18-7.07-2.87-3.59-1.41-6.19-3.03-6.19-7.96,0-5.42,4.08-9.02,10.13-9.02,6.4,0,10.1,3.4,10.17,9.34h-7.21Z"/><path d="M143.26,41.41h-7.49l-1.16-7.03c-.63-3.88-1.27-7.76-1.65-11.68-.25,3.92-.91,7.72-1.51,11.6l-1.09,7.12h-7.56l-6.86-28.79h7.56l1.27,6.51c.88,4.57,1.55,9.18,1.83,13.83,.32-4.61,1.09-9.1,1.86-13.62l1.16-6.71h6.79l1.02,5.74c.84,4.85,1.69,9.62,2.01,14.59,.35-5.09,1.2-10.15,2.15-15.16l.99-5.17h7.56l-6.86,28.79Z"/><path d="M164.75,12.63c7.67,0,12.63,5.34,12.63,14.31,0,9.58-4.57,14.47-12.77,14.47h-11.05V12.63h11.19Zm-3.66,21.51h3.03c3.76,0,5.63-2.71,5.63-7.03,0-4.89-2.43-7.24-6.37-7.24h-2.29v14.27Z"/></g><g><polygon class="b" points="40.58 16.33 41.13 -2.02 41.68 16.33 40.58 16.33"/><polygon class="b" points="37.54 16.66 35.84 -1.62 38.63 16.53 37.54 16.66"/><polygon class="b" points="34.13 17.49 29.91 -.38 35.19 17.2 34.13 17.49"/><polygon class="b" points="30.88 18.78 24.21 1.68 31.89 18.35 30.88 18.78"/><polygon class="b" points="27.83 20.51 18.85 4.5 28.77 19.95 27.83 20.51"/><polygon class="b" points="25.06 22.65 13.94 8.05 25.91 21.96 25.06 22.65"/><polygon class="b" points="22.61 25.16 9.57 12.24 23.36 24.36 22.61 25.16"/><polygon class="b" points="20.54 27.98 5.82 17.01 21.17 27.08 20.54 27.98"/><polygon class="b" points="18.53 31.87 2.13 23.62 18.99 30.87 18.53 31.87"/><polygon class="b" points="17.43 35.19 .04 29.3 17.75 34.14 17.43 35.19"/><polygon class="b" points="16.8 38.64 -1.24 35.23 16.97 37.56 16.8 38.64"/><polygon class="b" points="44.73 16.66 46.42 -1.62 43.64 16.53 44.73 16.66"/><polygon class="b" points="48.13 17.49 52.35 -.38 47.07 17.2 48.13 17.49"/><polygon class="b" points="51.39 18.78 58.05 1.68 50.38 18.35 51.39 18.78"/><polygon class="b" points="54.43 20.51 63.41 4.5 53.49 19.95 54.43 20.51"/><polygon class="b" points="57.2 22.65 68.33 8.05 56.35 21.96 57.2 22.65"/><polygon class="b" points="59.65 25.16 72.7 12.24 58.9 24.36 59.65 25.16"/><polygon class="b" points="61.73 27.98 76.44 17.01 61.1 27.08 61.73 27.98"/><polygon class="b" points="63.74 31.87 80.14 23.62 63.28 30.87 63.74 31.87"/><polygon class="b" points="64.84 35.19 82.23 29.3 64.52 34.14 64.84 35.19"/><polygon class="b" points="65.47 38.64 83.51 35.23 65.3 37.56 65.47 38.64"/><polygon class="b" points="16.88 42.49 -1.39 41.94 16.88 41.39 16.88 42.49"/><polygon class="b" points="65.38 42.49 83.65 41.94 65.38 41.39 65.38 42.49"/><path class="b" d="M64.57,42.49c.02-.36,.03-.72,.03-1.08,0-12.96-10.5-23.46-23.46-23.46s-23.46,10.5-23.46,23.46c0,.36,0,.72,.03,1.08h46.88Z"/></g></svg>